#!OML:ASF Y:\EmotionMaleHayes\Project 1\Capture day 1\Session 1\Male1.ASF
:FULLY-SPECIFIED
:DEGREES
974
root 14.3533 17.2807 1.71636 524.32 85.5685 528.875
lowerback 2.85735 -0.15396 2.62722
upperback 4.96834 -0.0946311 1.08373
thorax 3.5097 0.0787292 -0.351576
lowerneck -25.8032 2.6473 3.25443
upperneck 25.8987 2.58631 0.0663058
head 13.0139 1.54 -0.0239094
rclavicle -1.59028e-015 -2.38542e-015
rhumerus 51.5937 13.5515 -31.1375
rradius 39.6806
rwrist -3.12328
rhand 2.2556 -32.0969
rfingers 7.12502
rthumb 27.749 -60.069
lclavicle -1.59028e-015 -2.38542e-015
lhumerus 47.5474 -15.2444 23.2204
lradius 39.6042
lwrist 8.75242
lhand -7.15858 -20.3341
lfingers 7.12502
lthumb 18.7183 8.78527
rfemur 20.67 2.76358 15.9895
rtibia 12.0318
rfoot -14.6875 -1.78933
rtoes -5.76807
lfemur -1.20695 -0.405978 -3.06697
ltibia 12.3625
lfoot -8.99776 3.92018
ltoes -8.82749
975
root 14.4322 17.2836 1.66101 525.731 85.8576 530.304
lowerback 2.77629 -0.0879363 2.68385
upperback 4.91919 -0.0117084 1.12528
thorax 3.50652 0.119839 -0.34039
lowerneck -25.8518 2.34913 3.03468
upperneck 25.6994 2.14643 0.366884
head 12.9278 1.36503 0.0463857
rclavicle 2.78299e-015 3.18055e-015
rhumerus 51.4847 13.5368 -31.1731
rradius 39.7117
rwrist -3.25834
rhand 1.96918 -32.184
rfingers 7.12502
rthumb 27.4751 -60.1999
lclavicle 2.78299e-015 3.18055e-015
lhumerus 47.5835 -15.3193 23.0168
lradius 39.7346
lwrist 8.86878
lhand -7.63182 -20.2915
lfingers 7.12502
lthumb 18.2631 8.87116
rfemur 20.8789 2.92009 15.9704
rtibia 12.0658
rfoot -14.0584 -1.80118
rtoes -4.8842
lfemur -1.37135 -0.189872 -3.04878
ltibia 12.193
lfoot -8.74582 3.52648
ltoes -10.0718
976
root 14.5123 17.2875 1.60369 523.111 86.0896 527.649
lowerback 2.72599 -0.00329415 2.46092
upperback 4.79787 0.0959522 1.05788
thorax 3.41028 0.162288 -0.285519
lowerneck -25.9625 2.34992 3.17307
upperneck 25.7701 2.02602 0.559634
head 12.9772 1.35522 0.0782536
rclavicle 2.5345e-015 1.59028e-015
rhumerus 51.4083 13.7636 -30.9345
rradius 39.9394
rwrist -3.87939
rhand 1.50715 -33.4097
rfingers 7.12502
rthumb 27.0332 -61.495
lclavicle 2.5345e-015 1.59028e-015
lhumerus 47.6367 -15.473 22.7857
lradius 39.8597
lwrist 9.06337
lhand -7.53686 -20.1457
lfingers 7.12502
lthumb 18.3544 9.00834
rfemur 21.1179 3.12376 15.5978
rtibia 12.0224
rfoot -13.4214 -1.72688
rtoes -5.32471
lfemur -1.57915 -0.15319 -3.43883
ltibia 12.0324
lfoot -8.59828 3.25602
ltoes -11.4578
977
root 14.5914 17.2909 1.54198 522.034 86.3614 526.555
lowerback 2.82391 0.0460292 2.4413
upperback 4.58864 0.162765 0.992698
thorax 3.13931 0.188642 -0.343267
lowerneck -26.0614 2.47879 3.615
upperneck 26.0911 2.01864 0.597499
head 13.1354 1.40933 0.0234814
rclavicle 1.09332e-015 1.11319e-014
rhumerus 51.2763 13.9117 -31.0163
rradius 39.9166
rwrist -3.73083
rhand 1.8669 -33.4332
rfingers 7.12502
rthumb 27.3773 -61.4646
lclavicle 1.09332e-015 1.11319e-014
lhumerus 47.5803 -15.6108 22.7115
lradius 39.9292
lwrist 9.18857
lhand -7.26091 -20.3133
lfingers 7.12502
lthumb 18.6199 8.81559
rfemur 21.3367 3.38128 15.4092
rtibia 12.002
rfoot -13.1117 -1.63166
rtoes -6.35364
lfemur -1.81207 -0.224338 -3.69375
ltibia 11.9493
lfoot -8.45657 2.93612
ltoes -11.7007
978
root 14.6724 17.2912 1.47486 521.023 86.6727 525.531
lowerback 2.90273 0.0868189 2.44444
upperback 4.38924 0.217183 0.975223
thorax 2.88952 0.209329 -0.364733
lowerneck -26.1811 2.57451 3.74852
upperneck 26.3615 2.07376 0.67936
head 13.2733 1.46443 0.0484905
rclavicle 5.31749e-015 1.51076e-014
rhumerus 51.1366 13.9555 -31.2594
rradius 39.7164
rwrist -3.30644
rhand 2.19558 -32.4213
rfingers 7.12502
rthumb 27.6916 -60.4026
lclavicle 5.31749e-015 1.51076e-014
lhumerus 47.4615 -15.6849 22.8342
lradius 39.9282
lwrist 9.15658
lhand -7.15363 -20.4485
lfingers 7.12502
lthumb 18.7231 8.67045
rfemur 21.5069 3.54251 15.1526
rtibia 12.0243
rfoot -12.8535 -1.43112
rtoes -6.70733
lfemur -1.99898 -0.349744 -3.9629
ltibia 11.8525
lfoot -8.14269 2.71685
ltoes -10.9874
979
root 14.7606 17.2883 1.40771 518.205 86.9617 522.712
lowerback 2.79996 0.1303 2.32352
upperback 4.31004 0.268257 0.958677
thorax 2.86558 0.228776 -0.314306
lowerneck -26.3255 2.54544 3.47807
upperneck 26.3127 2.12853 0.693895
head 13.2775 1.45937 0.110078
rclavicle 9.59136e-015 1.03368e-014
rhumerus 51.1397 13.9725 -31.2849
rradius 39.7749
rwrist -3.2938
rhand 2.10369 -31.9762
rfingers 7.12502
rthumb 27.6038 -59.9715
lclavicle 9.59136e-015 1.03368e-014
lhumerus 47.4158 -15.7623 22.6556
lradius 40.0162
lwrist 9.16882
lhand -7.55957 -20.4892
lfingers 7.12502
lthumb 18.3326 8.66695
rfemur 21.7654 3.67051 14.7497
rtibia 11.9461
rfoot -12.3442 -1.17144
rtoes -6.55914
lfemur -2.07726 -0.499383 -4.35997
ltibia 11.6517
lfoot -7.70952 2.66951
ltoes -10.9533
980
root 14.8478 17.2832 1.34253 519.271 87.2957 523.788
lowerback 2.65726 0.161152 2.41154
upperback 4.29643 0.30346 0.996106
thorax 2.933 0.248306 -0.324405
lowerneck -26.3043 2.51426 3.31933
upperneck 25.9351 2.20157 0.495101
head 13.1177 1.43733 0.0669698
rclavicle -1.78906e-015 1.35174e-014
rhumerus 51.1995 14.0059 -31.0398
rradius 40.1146
rwrist -3.54952
rhand 2.07207 -32.2745
rfingers 7.12502
rthumb 27.5735 -60.2747
lclavicle -1.78906e-015 1.35174e-014
lhumerus 47.4038 -15.7518 22.3943
lradius 40.2237
lwrist 9.20713
lhand -7.82399 -20.3917
lfingers 7.12502
lthumb 18.0782 8.78813
rfemur 22.0728 3.86417 14.6771
rtibia 11.8233
rfoot -11.9257 -0.937226
rtoes -5.26585
lfemur -2.14963 -0.636002 -4.4672
ltibia 11.5008
lfoot -7.4084 2.46222
ltoes -11.9557
